<svg xmlns="http://www.w3.org/2000/svg" viewBox="0 0 180 180">
  <defs>
    <linearGradient id="g" x1="24" y1="24" x2="156" y2="156" gradientUnits="userSpaceOnUse">
      <stop stop-color="#FFE66D"/>
      <stop offset="0.55" stop-color="#FF9B6B"/>
      <stop offset="1" stop-color="#6C3FF5"/>
    </linearGradient>
    <filter id="shadow" x="-20%" y="-20%" width="140%" height="140%">
      <feDropShadow dx="0" dy="8" stdDeviation="5" flood-color="#6C3FF5" flood-opacity="0.28"/>
    </filter>
  </defs>
  <g filter="url(#shadow)">
    <circle cx="90" cy="90" r="73" fill="none" stroke="url(#g)" stroke-width="13"/>
    <circle cx="90" cy="90" r="59" fill="none" stroke="#ffffff" stroke-width="5" stroke-dasharray="10 12" opacity="0.9"/>
    <path d="M90 8l6.3 15.6 16.7-2.4-10.3 13.3 10.3 13.3-16.7-2.4L90 61l-6.3-15.6-16.7 2.4 10.3-13.3L67 21.2l16.7 2.4L90 8z" fill="#FFE66D"/>
    <path d="M151 32l4.2 10.4 11.1-1.6-6.8 8.9 6.8 8.8-11.1-1.6L151 67l-4.2-10.1-11.1 1.6 6.8-8.8-6.8-8.9 11.1 1.6L151 32z" fill="#FF9B6B"/>
    <path d="M29 113l4.2 10.4 11.1-1.6-6.8 8.9 6.8 8.8-11.1-1.6L29 148l-4.2-10.1-11.1 1.6 6.8-8.8-6.8-8.9 11.1 1.6L29 113z" fill="#6C3FF5"/>
  </g>
</svg>
